<svg width="24" height="24" viewBox="0 4 24 24" fill="none" xmlns="http://www.w3.org/2000/svg">
<path fill-rule="evenodd" clip-rule="evenodd" d="M20.9423 0.517508C19.3955 0.472132 17.8739 1.25588 17.0459 2.68993C15.896 4.6816 16.6131 9.22252 13.293 8.99462C10.795 8.82319 9.86944 8.11763 8.50955 10.4729L8.00189 11.3521L18.0285 17.1429L18.5369 16.2623C19.8968 13.907 18.8229 13.4581 17.4255 11.3806C15.568 8.61915 19.8591 6.96971 21.009 4.97804C21.837 3.54399 21.755 1.83437 20.9423 0.517508Z" fill="#17783D"/>
<path fill-rule="evenodd" clip-rule="evenodd" d="M19.9519 0.602125C18.7715 0.840437 17.6953 1.56508 17.0459 2.68994C15.896 4.68161 16.6131 9.22253 13.2929 8.99463C13.1727 8.98638 13.0561 8.97686 12.943 8.96655C12.7343 9.00133 12.5049 9.01202 12.2519 8.99463C11.5181 8.94428 10.9201 8.84786 10.4068 8.79644C9.72441 8.90988 9.16786 9.33273 8.50955 10.4729L8.00189 11.3522L17.2478 16.692L17.496 16.2622C18.8558 13.9069 17.7819 13.4581 16.3845 11.3805C14.527 8.61911 18.8182 6.96967 19.968 4.978C20.7784 3.57442 20.7169 1.90694 19.952 0.602032L19.9519 0.602125Z" fill="#239C52"/>
<path fill-rule="evenodd" clip-rule="evenodd" d="M19.1355 3.64683C18.7281 3.41166 18.5885 2.89074 18.8237 2.48339C19.0589 2.07605 19.5798 1.93646 19.9871 2.17167C20.3945 2.40685 20.5341 2.92772 20.2989 3.33511C20.0637 3.74246 19.5428 3.88205 19.1355 3.64688V3.64683Z" fill="#EFEFEF"/>
<path d="M18.537 16.2619L16.8666 19.155L6.83949 13.3657L8.50988 10.4726L18.537 16.2619Z" fill="#F9AC00"/>
<path d="M17.7563 15.8112L16.0859 18.7043L6.83953 13.3658L8.50992 10.4727L17.7563 15.8112Z" fill="#FFBC00"/>
<path fill-rule="evenodd" clip-rule="evenodd" d="M17.1195 18.7173L7.09214 12.9279L5.02318 16.5114C4.52578 17.3729 3.66493 17.8774 2.72105 17.9102C2.55127 17.9161 2.49507 18.1414 2.64221 18.2264L11.034 23.0714C12.5094 23.9232 14.4075 23.4146 15.2594 21.9392L17.1195 18.7173Z" fill="#D75F05"/>
<path fill-rule="evenodd" clip-rule="evenodd" d="M16.3387 18.2664L7.57434 13.2063L7.09214 12.9279L5.02317 16.5114C4.52578 17.3729 3.66492 17.8773 2.72105 17.9102C2.55126 17.9161 2.49506 18.1414 2.6422 18.2263L11.034 23.0713C11.0535 23.0826 11.073 23.0935 11.0927 23.1043C12.3798 23.345 13.7396 22.7683 14.4299 21.5727L16.3387 18.2664Z" fill="#F58634"/>
<path fill-rule="evenodd" clip-rule="evenodd" d="M13.79 19.7408C13.7746 19.7674 13.7542 19.7906 13.7298 19.8093C13.7054 19.8279 13.6776 19.8416 13.6479 19.8495C13.6182 19.8574 13.5873 19.8594 13.5569 19.8554C13.5264 19.8513 13.4971 19.8413 13.4705 19.8259C13.4439 19.8105 13.4207 19.79 13.402 19.7657C13.3834 19.7413 13.3697 19.7135 13.3618 19.6838C13.3539 19.6541 13.3519 19.6232 13.3559 19.5928C13.36 19.5623 13.37 19.533 13.3854 19.5064L14.6607 17.2976L15.0657 17.5314L15.0655 17.5317L13.7901 19.7408H13.79ZM2.4765 18.3921C2.43545 18.3509 2.41114 18.296 2.40829 18.238C2.40545 18.1799 2.42427 18.1229 2.46111 18.0779C2.49795 18.033 2.55017 18.0033 2.60765 17.9947C2.66512 17.9861 2.72374 17.9991 2.77214 18.0313C3.45052 18.4183 4.2248 18.4954 4.92834 18.3069C5.63644 18.1171 6.27211 17.659 6.6653 16.9779C6.6758 16.9596 6.68836 16.9434 6.70261 16.9292L6.70191 16.9285C6.74355 16.887 6.7993 16.8626 6.85808 16.8602C6.91686 16.8579 6.97437 16.8777 7.0192 16.9158C7.06404 16.9539 7.0929 17.0075 7.10008 17.0659C7.10725 17.1242 7.0922 17.1832 7.05792 17.231C6.59845 18.014 5.86481 18.5406 5.04919 18.7592C4.23174 18.9782 3.33117 18.8883 2.54095 18.4378C2.51766 18.4266 2.49581 18.4114 2.47655 18.3921L2.4765 18.3921ZM4.9193 19.8105C5.71313 20.2688 6.61997 20.3613 7.44253 20.1409C8.26566 19.9204 9.00506 19.3868 9.46327 18.5931C9.46573 18.5889 9.46806 18.5845 9.47025 18.5801L10.6285 16.574C10.6438 16.5474 10.6536 16.5181 10.6576 16.4877C10.6615 16.4573 10.6594 16.4264 10.6514 16.3968C10.6434 16.3672 10.6297 16.3395 10.611 16.3152C10.5923 16.291 10.569 16.2706 10.5424 16.2553C10.5159 16.2401 10.4865 16.2302 10.4561 16.2263C10.4257 16.2223 10.3949 16.2244 10.3653 16.2324C10.3357 16.2404 10.308 16.2541 10.2837 16.2728C10.2594 16.2915 10.2391 16.3148 10.2238 16.3414L9.066 18.3468C9.06342 18.3507 9.06094 18.3546 9.05855 18.3588C8.66494 19.0405 8.02931 19.499 7.32159 19.6886C6.61327 19.8784 5.83331 19.7993 5.15175 19.4058C5.12518 19.3905 5.09586 19.3806 5.06547 19.3767C5.03508 19.3727 5.00421 19.3748 4.97462 19.3828C4.94504 19.3908 4.91731 19.4045 4.89304 19.4233C4.86876 19.442 4.84841 19.4653 4.83314 19.4918C4.81787 19.5184 4.80799 19.5477 4.80405 19.5781C4.80011 19.6085 4.8022 19.6394 4.81019 19.669C4.81818 19.6985 4.83192 19.7263 4.85062 19.7505C4.86933 19.7748 4.89263 19.7952 4.9192 19.8104L4.9193 19.8105ZM7.98534 21.5807C8.39757 21.8193 8.85651 21.9659 9.3307 22.0106C9.3042 22.0356 9.28392 22.0664 9.27148 22.1007C9.25903 22.1349 9.25477 22.1716 9.25903 22.2077C9.2633 22.2439 9.27597 22.2786 9.29603 22.3089C9.3161 22.3393 9.343 22.3646 9.37458 22.3828C10.1684 22.8411 11.0753 22.9336 11.8978 22.7132C12.7209 22.4926 13.4604 21.9591 13.9186 21.1654C13.949 21.1118 13.9569 21.0484 13.9408 20.9889C13.9246 20.9294 13.8857 20.8787 13.8324 20.8478C13.779 20.817 13.7157 20.8084 13.656 20.8239C13.5964 20.8395 13.5454 20.878 13.514 20.931C13.1204 21.6128 12.4847 22.0713 11.777 22.2609C11.0978 22.4429 10.3526 22.3776 9.69155 22.0249C9.96756 22.0208 10.242 21.9826 10.5086 21.9111C11.3317 21.6906 12.0712 21.157 12.5294 20.3633C12.5319 20.3591 12.5342 20.3547 12.5364 20.3503L13.0993 19.3753C13.1146 19.3487 13.1245 19.3194 13.1284 19.289C13.1323 19.2586 13.1303 19.2278 13.1223 19.1982C13.1143 19.1686 13.1005 19.1409 13.0818 19.1166C13.0631 19.0923 13.0398 19.072 13.0133 19.0567C12.9867 19.0414 12.9574 19.0315 12.927 19.0276C12.8966 19.0237 12.8657 19.0257 12.8361 19.0337C12.8065 19.0417 12.7788 19.0555 12.7545 19.0742C12.7303 19.0929 12.7099 19.1162 12.6946 19.1428L12.1322 20.117C12.1296 20.1208 12.1271 20.1248 12.1247 20.129C11.7311 20.8107 11.0955 21.2692 10.3878 21.4588C9.67945 21.6486 8.8995 21.5695 8.21794 21.176C8.19137 21.1607 8.16205 21.1508 8.13166 21.1469C8.10127 21.1429 8.0704 21.145 8.04081 21.153C8.01122 21.161 7.9835 21.1747 7.95923 21.1934C7.93495 21.2121 7.9146 21.2354 7.89933 21.262C7.88406 21.2886 7.87417 21.3179 7.87023 21.3483C7.8663 21.3787 7.86838 21.4096 7.87637 21.4391C7.88437 21.4687 7.89811 21.4965 7.91681 21.5207C7.93552 21.545 7.95882 21.5654 7.98539 21.5806L7.98534 21.5807ZM13.419 16.5807L13.0148 16.3474L13.0146 16.3478L11.04 19.7679C11.0247 19.7945 11.0148 19.8238 11.0109 19.8542C11.007 19.8846 11.0091 19.9154 11.017 19.945C11.025 19.9746 11.0388 20.0023 11.0575 20.0266C11.0762 20.0509 11.0995 20.0712 11.1261 20.0865C11.1526 20.1018 11.182 20.1116 11.2123 20.1156C11.2427 20.1195 11.2736 20.1174 11.3032 20.1094C11.3328 20.1015 11.3605 20.0877 11.3848 20.069C11.409 20.0503 11.4294 20.027 11.4447 20.0004L13.419 16.5808L13.419 16.5807ZM12.3025 15.9361L12.3023 15.9364L11.3955 17.507C11.3802 17.5335 11.3597 17.5568 11.3353 17.5755C11.3109 17.5941 11.2831 17.6078 11.2534 17.6157C11.2238 17.6236 11.1928 17.6256 11.1624 17.6215C11.132 17.6175 11.1026 17.6075 11.076 17.5921C11.0495 17.5767 11.0262 17.5562 11.0075 17.5318C10.9889 17.5075 10.9752 17.4796 10.9673 17.45C10.9594 17.4203 10.9574 17.3894 10.9615 17.3589C10.9655 17.3285 10.9755 17.2991 10.9909 17.2726L11.8975 15.7023L12.3025 15.9361ZM10.177 14.7089L8.2027 18.1286C8.18743 18.1552 8.16708 18.1785 8.14281 18.1972C8.11853 18.2159 8.09081 18.2296 8.06122 18.2376C8.03164 18.2456 8.00077 18.2477 7.97038 18.2438C7.93998 18.2398 7.91067 18.2299 7.88409 18.2147C7.85752 18.1994 7.83422 18.1791 7.81551 18.1548C7.79681 18.1305 7.78307 18.1028 7.77508 18.0732C7.76709 18.0436 7.765 18.0127 7.76894 17.9823C7.77288 17.952 7.78276 17.9226 7.79803 17.8961L9.77259 14.476L9.77283 14.4756L10.177 14.7089ZM8.23988 13.5905L7.83492 13.3567L6.92831 14.927C6.89794 14.9806 6.88996 15.0441 6.90611 15.1035C6.92226 15.163 6.96123 15.2137 7.01456 15.2446C7.06788 15.2755 7.13124 15.284 7.19086 15.2685C7.25048 15.2529 7.30154 15.2144 7.33294 15.1614L8.23988 13.5905Z" fill="#D75F05"/>
</svg>
