<svg width="18" height="18" viewBox="0 0 18 18" fill="none" xmlns="http://www.w3.org/2000/svg">
<path d="M6.375 10.6875C6.375 12.1275 7.56 13.3125 9 13.3125C10.44 13.3125 11.625 12.1275 11.625 10.6875" stroke="white" stroke-width="1.3" stroke-miterlimit="10" stroke-linecap="round" stroke-linejoin="round"/>
<path d="M6.60758 1.5L3.89258 4.2225" stroke="white" stroke-width="1.3" stroke-miterlimit="10" stroke-linecap="round" stroke-linejoin="round"/>
<path d="M11.3926 1.5L14.1076 4.2225" stroke="white" stroke-width="1.3" stroke-miterlimit="10" stroke-linecap="round" stroke-linejoin="round"/>
<path d="M1.5 5.88751C1.5 4.50001 2.2425 4.38751 3.165 4.38751H14.835C15.7575 4.38751 16.5 4.50001 16.5 5.88751C16.5 7.50001 15.7575 7.38751 14.835 7.38751H3.165C2.2425 7.38751 1.5 7.50001 1.5 5.88751Z" stroke="white" stroke-width="1.3"/>
<path d="M2.625 7.5L3.6825 13.98C3.9225 15.435 4.5 16.5 6.645 16.5H11.1675C13.5 16.5 13.845 15.48 14.115 14.07L15.375 7.5" stroke="white" stroke-width="1.3" stroke-linecap="round"/>
</svg>
