<svg width="45" height="44" viewBox="0 0 45 44" fill="none" xmlns="http://www.w3.org/2000/svg">
<rect width="44" height="44" rx="22" fill="#F58634"/>
<path d="M13.875 13.875C13.5298 13.875 13.25 14.1548 13.25 14.5C13.25 14.8452 13.5298 15.125 13.875 15.125H15.0297C15.1713 15.125 15.2952 15.2202 15.3317 15.357L17.4631 23.3499C16.1182 23.6988 15.125 24.9209 15.125 26.375C15.125 26.7202 15.4048 27 15.75 27H28.875C29.2202 27 29.5 26.7202 29.5 26.375C29.5 26.0298 29.2202 25.75 28.875 25.75H16.4817C16.7391 25.0218 17.4336 24.5 18.25 24.5H27.5985C27.8376 24.5 28.0557 24.3637 28.1604 24.1488C29.1064 22.2075 29.9319 20.1967 30.6273 18.126C30.6826 17.9613 30.6668 17.781 30.5837 17.6283C30.5007 17.4757 30.3578 17.3645 30.1894 17.3215C26.1712 16.2953 21.9614 15.75 17.625 15.75C17.3268 15.75 17.0292 15.7526 16.7322 15.7577L16.5395 15.0349C16.3571 14.3509 15.7376 13.875 15.0297 13.875H13.875Z" fill="#FEFEFE"/>
<path d="M15.125 28.875C15.125 28.1846 15.6846 27.625 16.375 27.625C17.0654 27.625 17.625 28.1846 17.625 28.875C17.625 29.5654 17.0654 30.125 16.375 30.125C15.6846 30.125 15.125 29.5654 15.125 28.875Z" fill="#FEFEFE"/>
<path d="M25.75 28.875C25.75 28.1846 26.3096 27.625 27 27.625C27.6904 27.625 28.25 28.1846 28.25 28.875C28.25 29.5654 27.6904 30.125 27 30.125C26.3096 30.125 25.75 29.5654 25.75 28.875Z" fill="#FEFEFE"/>
<rect x="28.5" y="28" width="16" height="16" rx="8" fill="white"/>
<path d="M34.2654 39.5V38.72C34.8988 38.2667 35.4288 37.8667 35.8554 37.52C36.2888 37.1733 36.6354 36.8533 36.8954 36.56C37.1554 36.2667 37.3421 35.99 37.4554 35.73C37.5754 35.4633 37.6354 35.1933 37.6354 34.92C37.6354 34.5667 37.5254 34.28 37.3054 34.06C37.0854 33.84 36.7788 33.73 36.3854 33.73C35.9721 33.73 35.6421 33.87 35.3954 34.15C35.1554 34.4233 35.0188 34.8 34.9854 35.28L34.0554 34.85C34.1021 34.43 34.2254 34.0667 34.4254 33.76C34.6254 33.4533 34.8954 33.2167 35.2354 33.05C35.5821 32.8833 35.9821 32.8 36.4354 32.8C36.8088 32.8 37.1354 32.8533 37.4154 32.96C37.7021 33.0667 37.9421 33.2167 38.1354 33.41C38.3288 33.5967 38.4754 33.8167 38.5754 34.07C38.6821 34.3233 38.7354 34.5933 38.7354 34.88C38.7354 35.3 38.6321 35.7067 38.4254 36.1C38.2188 36.4867 37.8921 36.8833 37.4454 37.29C36.9988 37.6967 36.4121 38.1333 35.6854 38.6V38.62C35.7654 38.6067 35.8754 38.6 36.0154 38.6C36.1554 38.5933 36.2954 38.59 36.4354 38.59C36.5754 38.5833 36.6888 38.58 36.7754 38.58H38.8554V39.5H34.2654Z" fill="#595959"/>
</svg>
