<svg width="16" height="17" viewBox="0 0 16 17" fill="none" xmlns="http://www.w3.org/2000/svg">
<path d="M12.0841 10.0126C10.972 10.0126 10.0673 10.9173 10.0673 12.0294C10.0673 13.1415 10.972 14.0462 12.0841 14.0462C13.1964 14.0462 14.1009 13.1415 14.1009 12.0294C14.1009 10.9173 13.1962 10.0126 12.0841 10.0126ZM12.0841 13.0378C11.528 13.0378 11.0757 12.5855 11.0757 12.0294C11.0757 11.4733 11.528 11.021 12.0841 11.021C12.6402 11.021 13.0925 11.4733 13.0925 12.0294C13.0925 12.5856 12.6402 13.0378 12.0841 13.0378ZM5.19333 10.0126C4.08123 10.0126 3.17651 10.9173 3.17651 12.0294C3.17651 13.1415 4.08123 14.0462 5.19333 14.0462C6.30542 14.0462 7.21014 13.1415 7.21014 12.0294C7.21014 10.9173 6.30542 10.0126 5.19333 10.0126ZM5.19333 13.0378C4.6372 13.0378 4.18492 12.5855 4.18492 12.0294C4.18492 11.4733 4.6372 11.021 5.19333 11.021C5.74929 11.021 6.20173 11.4733 6.20173 12.0294C6.20173 12.5856 5.74945 13.0378 5.19333 13.0378ZM13.4422 4.23985C13.4002 4.15637 13.3358 4.08621 13.2563 4.03718C13.1767 3.98815 13.0851 3.96219 12.9916 3.96219H10.3362V4.9706H12.6807L14.0536 7.70134L14.9548 7.24822L13.4422 4.23985Z" fill="#239C52"/>
<path d="M6.75631 11.542H10.5714V12.5505H6.75631V11.542ZM3.68066 11.542H1.93278C1.65428 11.542 1.42859 11.7678 1.42859 12.0462C1.42859 12.3247 1.65431 12.5504 1.93278 12.5504H3.68069C3.95919 12.5504 4.18488 12.3247 4.18488 12.0462C4.18488 11.7677 3.95916 11.542 3.68066 11.542ZM15.8941 8.45967L14.9024 7.18236C14.8553 7.12163 14.7949 7.07249 14.7259 7.03869C14.6569 7.0049 14.5811 6.98735 14.5042 6.98739H10.8403V3.45798C10.8403 3.17948 10.6146 2.9538 10.3362 2.9538H1.93278C1.65428 2.9538 1.42859 3.17951 1.42859 3.45798C1.42859 3.73645 1.65431 3.96217 1.93278 3.96217H9.83194V7.49158C9.83194 7.77008 10.0577 7.99576 10.3361 7.99576H14.2573L14.9916 8.94164V11.542H13.5966C13.3181 11.542 13.0924 11.7677 13.0924 12.0462C13.0924 12.3247 13.3182 12.5504 13.5966 12.5504H15.4958C15.7743 12.5504 16 12.3246 16 12.0462V8.76892C16 8.65698 15.9627 8.54808 15.8941 8.45967ZM3.64706 8.98742H1.32772C1.04922 8.98742 0.823531 9.21314 0.823531 9.49161C0.823531 9.77011 1.04925 9.9958 1.32772 9.9958H3.64703C3.92553 9.9958 4.15122 9.77008 4.15122 9.49161C4.15125 9.21314 3.92553 8.98742 3.64706 8.98742ZM4.80672 7.0042H0.504188C0.225719 7.0042 0 7.22992 0 7.50842C0 7.78692 0.225719 8.01261 0.504188 8.01261H4.80672C5.08522 8.01261 5.31091 7.78689 5.31091 7.50842C5.31091 7.22995 5.08522 7.0042 4.80672 7.0042Z" fill="#239C52"/>
<path d="M5.63021 5.02103H1.32767C1.04917 5.02103 0.823486 5.24675 0.823486 5.52521C0.823486 5.80371 1.04921 6.0294 1.32767 6.0294H5.63021C5.90871 6.0294 6.13439 5.80368 6.13439 5.52521C6.13442 5.24675 5.90871 5.02103 5.63021 5.02103Z" fill="#239C52"/>
</svg>
