<svg width="60" height="60" viewBox="0 0 60 60" fill="none" xmlns="http://www.w3.org/2000/svg">
<g clip-path="url(#clip0_74_166)">
<path d="M45.7735 14.2266C38.5547 7.00784 30.2578 3.58596 27.2461 6.59768L1.67581 32.168C-1.33591 35.1797 2.08597 43.4649 9.30472 50.6953C16.5235 57.9258 24.8203 61.336 27.8321 58.3242L53.4024 32.7539C56.4024 29.7422 52.9922 21.4571 45.7735 14.2266Z" fill="#EAEAE0"/>
<path d="M45.7735 14.2266C38.5547 7.00784 30.2578 3.58596 27.2461 6.59768L1.67581 32.168C-1.33591 35.1797 2.08597 43.4649 9.30472 50.6953C16.5235 57.9258 24.8203 61.336 27.8321 58.3242L53.4024 32.7539C56.4024 29.7422 52.9922 21.4571 45.7735 14.2266Z" fill="#F58634"/>
<path d="M43.2422 37.5C43.2422 37.5 35.5195 45.9375 31.5352 49.9219C28.7344 52.7227 14.6016 52.1953 6.43359 47.5312C7.3125 48.5977 8.27344 49.6641 9.30469 50.6953C16.5234 57.9141 24.8203 61.3359 27.832 58.3242L53.4023 32.7539C54.3164 31.8398 54.6328 30.4688 54.4336 28.7109H42.3281C42.3281 28.7109 41.9531 34.4531 43.2422 37.5Z" fill="#F26700"/>
<path d="M44.3203 15.6797C37.8985 9.25779 30.9141 5.84764 28.6993 8.05076C26.4844 10.2539 29.9063 17.25 36.3282 23.6719C42.75 30.0937 49.7344 33.5039 51.9493 31.3008C54.1524 29.0976 50.7305 22.1015 44.3203 15.6797Z" fill="#275E87"/>
<path d="M31.5352 30.8086C32.8296 30.8086 33.8789 29.7593 33.8789 28.4648C33.8789 27.1704 32.8296 26.1211 31.5352 26.1211C30.2407 26.1211 29.1914 27.1704 29.1914 28.4648C29.1914 29.7593 30.2407 30.8086 31.5352 30.8086Z" fill="#275E87"/>
<path d="M31.9453 28.0547L31.1133 28.8867C31.0664 28.8398 25.9336 23.6836 21.1641 17.8711C20.332 16.8633 19.5703 15.9023 18.8672 14.9766C13.9453 8.54297 12.0234 4.25391 12.9961 1.91016C13.5234 0.644531 14.8242 0 16.8633 0C22.1719 0 28.6992 5.08594 28.9688 5.30859L29.0156 5.35547L29.2617 5.60156C28.793 5.68359 28.3711 5.83594 27.9844 6.03516C26.7656 5.12109 21.2109 1.17188 16.8633 1.17188C15.3398 1.17188 14.4141 1.57031 14.0859 2.35547C13.6289 3.46875 13.8516 6.43359 19.7109 14.1328C20.4141 15.0586 21.1992 16.0547 22.0781 17.1211C26.8125 22.8867 31.8984 28.0078 31.9453 28.0547Z" fill="#275E87"/>
<path d="M59.4141 34.0195C59.4141 42.1406 58.207 50.6602 55.7812 50.6602C53.3555 50.6602 53.5195 42.0703 51.3281 42.0703C49.1367 42.0703 46.4766 38.1914 46.4766 31.0664C44.25 30.0938 41.625 28.3945 38.9766 26.1211C45.2344 26.1094 46.418 22.207 49.7227 22.207C55.582 22.207 59.4141 25.8984 59.4141 34.0195Z" fill="#4893CC"/>
<path d="M55.7812 50.6602C56.6953 50.6602 57.4453 49.4414 58.0078 47.4727C55.9805 46.0898 55.7812 40.0195 54.0234 40.0195C52.0312 40.0195 50.0977 35.8594 50.0977 32.4609C50.0977 29.0625 48.2812 28.7109 42.3281 28.7109C43.793 29.7188 45.1992 30.5156 46.4766 31.0664C46.4766 38.1914 49.1484 42.0703 51.3281 42.0703C53.5078 42.0703 53.3555 50.6602 55.7812 50.6602Z" fill="#3279AF"/>
</g>
<defs>
<clipPath id="clip0_74_166">
<rect width="60" height="60" fill="white"/>
</clipPath>
</defs>
</svg>
