<svg width="59" height="58" viewBox="0 0 59 58" fill="none" xmlns="http://www.w3.org/2000/svg">
<path d="M37.8833 36H54.3333C56.5433 36 58.3333 37.79 58.3333 40V54C58.3333 56.21 56.5433 58 54.3333 58H11.3333L37.8833 36Z" fill="#95A5A5"/>
<path d="M54.3333 52V42C54.3333 40.8954 53.4379 40 52.3333 40H47.3333C46.2288 40 45.3333 40.8954 45.3333 42V52C45.3333 53.1046 46.2288 54 47.3333 54H52.3333C53.4379 54 54.3333 53.1046 54.3333 52Z" fill="#F29C1F"/>
<path d="M33.8133 40.07C33.9733 40.02 34.1533 40 34.3333 40H39.3333C40.4333 40 41.3333 40.9 41.3333 42V52C41.3333 53.1 40.4333 54 39.3333 54H34.3333C33.2333 54 32.3333 53.1 32.3333 52V42C32.3333 41.82 32.3533 41.65 32.4033 41.49L33.8133 40.07Z" fill="#F0C419"/>
<path d="M28.3333 45.5601V52.0001C28.3333 53.1001 27.4333 54.0001 26.3333 54.0001H21.3333C20.9233 54.0001 20.5433 53.8801 20.2233 53.6701L28.3333 45.5601Z" fill="#F9EAB0"/>
<path d="M19.1133 54.78L49.5133 24.37C49.8864 24.0002 50.1825 23.5601 50.3845 23.0753C50.5866 22.5904 50.6907 22.0703 50.6907 21.545C50.6907 21.0197 50.5866 20.4996 50.3845 20.0148C50.1825 19.5299 49.8864 19.0898 49.5133 18.72L39.6133 8.82001C39.2435 8.44697 38.8035 8.15087 38.3186 7.94881C37.8337 7.74674 37.3136 7.6427 36.7883 7.6427C36.2631 7.6427 35.743 7.74674 35.2581 7.94881C34.7732 8.15087 34.3332 8.44697 33.9633 8.82001L22.3333 20.45L19.1133 54.78Z" fill="#BDC3C7"/>
<path d="M45.2724 20.1236L38.2013 13.0525C37.4203 12.2715 36.1539 12.2715 35.3729 13.0525L31.8373 16.5881C31.0563 17.3691 31.0563 18.6354 31.8373 19.4165L38.9084 26.4875C39.6895 27.2686 40.9558 27.2686 41.7368 26.4875L45.2724 22.952C46.0534 22.171 46.0534 20.9046 45.2724 20.1236Z" fill="#894B9D"/>
<path d="M22.3333 28.2C22.4133 28.35 22.5133 28.49 22.6433 28.62L29.7133 35.69C30.5033 36.47 31.7633 36.47 32.5433 35.69L36.0833 32.15C36.8633 31.37 36.8633 30.1 36.0833 29.32L29.0133 22.25C28.2333 21.47 26.9633 21.47 26.1833 22.25L22.6433 25.79C22.5133 25.92 22.4133 26.05 22.3333 26.2V28.2Z" fill="#955BA5"/>
<path d="M22.3333 45.4199C22.7033 45.3499 23.0633 45.17 23.3533 44.88L26.8933 41.34C27.6733 40.56 27.6733 39.2999 26.8933 38.5099L22.3333 33.95V45.4199Z" fill="#B49ACA"/>
<path d="M4.33334 0H18.3333C20.5413 0 22.3333 1.792 22.3333 4V47C22.3333 53.071 17.4043 58 11.3333 58C5.26234 58 0.333344 53.071 0.333344 47V4C0.333344 1.792 2.12534 0 4.33334 0Z" fill="#ECF0F1"/>
<path d="M11.3333 51C13.5425 51 15.3333 49.2091 15.3333 47C15.3333 44.7909 13.5425 43 11.3333 43C9.1242 43 7.33334 44.7909 7.33334 47C7.33334 49.2091 9.1242 51 11.3333 51Z" fill="#BDC3C7"/>
<path d="M16.3333 4H6.33334C5.22877 4 4.33334 4.89543 4.33334 6V11C4.33334 12.1046 5.22877 13 6.33334 13H16.3333C17.4379 13 18.3333 12.1046 18.3333 11V6C18.3333 4.89543 17.4379 4 16.3333 4Z" fill="#14A085"/>
<path d="M16.3333 17H6.33334C5.22877 17 4.33334 17.8954 4.33334 19V24C4.33334 25.1046 5.22877 26 6.33334 26H16.3333C17.4379 26 18.3333 25.1046 18.3333 24V19C18.3333 17.8954 17.4379 17 16.3333 17Z" fill="#26B99A"/>
<path d="M16.3333 30H6.33334C5.22877 30 4.33334 30.8954 4.33334 32V37C4.33334 38.1046 5.22877 39 6.33334 39H16.3333C17.4379 39 18.3333 38.1046 18.3333 37V32C18.3333 30.8954 17.4379 30 16.3333 30Z" fill="#81CCB8"/>
</svg>
