<svg width="61" height="60" viewBox="0 0 61 60" fill="none" xmlns="http://www.w3.org/2000/svg">
<g clip-path="url(#clip0_74_223)">
<path d="M58.7803 44.4707C56.2798 47.9776 58.0663 45.4718 49.9476 56.8598C49.9476 56.8598 46.3912 62.9939 40.3462 58.1047L2.74227 18.5902C2.74227 18.5902 0.253759 14.0561 4.4314 11.6121C21.2616 4.93784 17.5175 6.4228 22.4785 4.45465C22.4785 4.45465 25.5895 3.34468 30.3005 9.03325C34.2795 13.8372 52.8638 34.3575 58.555 40.6304C59.5236 41.6983 59.6178 43.2971 58.7803 44.4707Z" fill="#52528C"/>
<path d="M56.8544 47.1719L49.9476 56.8599C49.9476 56.8599 46.3912 62.994 40.3462 58.1048L2.74227 18.5903C2.74227 18.5903 0.253759 14.0562 4.4314 11.6122L18.7438 5.9364C23.6025 15.7199 36.2054 37.2915 56.8544 47.1719Z" fill="#404077"/>
<path d="M55.9302 43.8813C54.3535 46.0928 47.7691 55.3289 47.7608 55.3437C47.0111 56.5822 45.2761 56.7452 44.2985 55.6772L7.95096 15.9514C6.92373 14.8274 7.3387 13.0212 8.75543 12.4598L10.6228 11.7203L11.7162 12.6508C12.1624 13.0304 12.708 13.2742 13.2884 13.3534C13.8688 13.4326 14.4598 13.3438 14.9914 13.0976L19.7838 10.8776C21.0912 10.2713 21.8111 8.83132 21.4844 7.41026L22.4543 7.02584C22.4543 7.02584 25.3222 6.00371 29.664 11.248C33.3363 15.6803 50.5077 34.6401 55.7266 40.3923C56.1536 40.8633 56.4067 41.4662 56.4437 42.1009C56.4808 42.7355 56.2996 43.3638 55.9302 43.8813Z" fill="#BAEDFE"/>
<path d="M54.4537 45.9524C47.5844 55.589 47.77 55.3273 47.7608 55.3438C47.0111 56.5823 45.2761 56.7453 44.2985 55.6773L7.95096 15.9515C6.92373 14.8275 7.3387 13.0213 8.75543 12.4599L10.6228 11.7204L11.7162 12.6509C12.1624 13.0305 12.708 13.2743 13.2884 13.3535C13.8688 13.4327 14.4598 13.3439 14.9914 13.0977L19.7838 10.8777C20.223 10.6741 20.5934 10.3775 20.881 10.0223C26.5467 20.3481 37.6795 36.9314 54.4537 45.9524Z" fill="#9AE1FF"/>
<path d="M20.3095 52.9635C17.2996 59.2593 10.1276 61.9969 5.08949 58.3937C1.16261 55.5793 -0.0504645 49.6667 2.4546 44.4262C4.9622 39.1844 10.3262 36.4159 14.9824 37.7078C20.9785 39.3752 23.3079 46.6945 20.3095 52.9635Z" fill="#EDD15A"/>
<path d="M17.6161 51.6752C15.1097 56.917 9.74447 59.6856 5.08949 58.3936C1.16261 55.5792 -0.0504645 49.6666 2.4546 44.4261C4.9622 39.1843 10.3262 36.4157 14.9824 37.7077C18.9093 40.521 20.1224 46.4348 17.6161 51.6752Z" fill="#FAE26B"/>
<path d="M14.159 50.4259C16.0547 46.4586 15.3146 42.1544 12.5059 40.8123C9.69719 39.4703 5.88349 41.5984 3.98777 45.5658C2.09204 49.5331 2.83217 53.8372 5.64088 55.1793C8.44959 56.5214 12.2633 54.3933 14.159 50.4259Z" fill="#EDD15A"/>
<path d="M54.2576 35.6305C54.2615 36.0773 54.1711 36.519 53.9916 36.9288C51.8328 41.8358 47.5342 46.2757 44.254 49.1741C42.4312 50.7841 39.5476 49.8225 39.0618 47.4455C35.5117 30.1367 26.534 21.9927 21.977 18.8715C20.503 17.8621 20.1619 15.8179 21.2336 14.3884C25.1389 9.18033 30.3361 4.34867 35.569 0.594011C36.9081 -0.365753 38.7614 -0.141723 39.8256 1.1159C53.2941 17.0206 54.2246 32.2764 54.2576 35.6305Z" fill="#79E9B3"/>
<path d="M54.2577 35.6305C54.2615 36.0773 54.1711 36.519 53.9916 36.9288C51.8328 41.8358 47.5342 46.2757 44.254 49.1741C42.8805 50.3872 40.9037 50.1415 39.8052 48.9259C44.3596 28.7339 38.391 9.81742 34.8562 1.11335C35.1057 0.928783 35.3437 0.755669 35.569 0.594011C36.9081 -0.365753 38.7614 -0.141723 39.8256 1.1159C53.2941 17.0206 54.2246 32.2764 54.2577 35.6305Z" fill="#14D2AA"/>
<path d="M50.4199 35.9755C48.7409 38.5314 46.5783 40.7934 44.7937 42.4456C43.8712 39.899 40.3809 40.2563 40.3398 40.2142C37.3727 29.7039 30.8109 22.3555 26.9464 18.7532C28.9703 16.1832 27.6121 13.5598 26.6651 12.2678C29.1154 9.16062 31.7605 6.78031 33.8735 5.13318C35.8078 6.59701 38.1208 6.77509 40.3436 5.29102C46.9016 13.9976 50.1271 23.9135 51.4636 29.0382C50.4008 30.1685 48.9548 32.5017 50.4199 35.9755Z" fill="#B4FFC6"/>
<path d="M50.4199 35.9755C48.7409 38.5314 46.5783 40.7934 44.7937 42.4456C44.203 40.815 42.5521 40.3339 41.1634 40.2346C42.3803 26.7406 39.5162 14.4635 36.7757 6.30297C37.8157 6.39462 39.03 6.16804 40.3436 5.29102C46.9016 13.9976 50.1271 23.9135 51.4636 29.0382C50.4008 30.1685 48.9548 32.5017 50.4199 35.9755Z" fill="#79E9B3"/>
<path d="M56.9804 19.4684C52.6972 22.8854 45.9958 20.8133 43.1542 14.8707C40.4316 9.17703 42.6961 2.99305 47.5444 1.41745C51.7577 0.0287248 56.7334 2.49305 59.0234 7.28169C61.186 11.8043 60.2326 16.8896 56.9804 19.4684Z" fill="#EDD15A"/>
<path d="M56.9804 19.4684C52.7671 20.8559 47.7939 18.389 45.5039 13.6016C43.3426 9.08029 44.2947 3.99634 47.5444 1.41745C51.7577 0.0287248 56.7334 2.49305 59.0234 7.28169C61.186 11.8043 60.2326 16.8896 56.9804 19.4684Z" fill="#FAE26B"/>
<path d="M56.1883 16.8641C58.6846 15.6712 59.3425 11.8459 57.6576 8.3199C55.9728 4.79392 52.5833 2.90251 50.087 4.09533C47.5907 5.28815 46.9329 9.1135 48.6177 12.6395C50.3025 16.1655 53.692 18.0569 56.1883 16.8641Z" fill="#EDD15A"/>
</g>
<defs>
<clipPath id="clip0_74_223">
<rect width="60" height="60" fill="white" transform="translate(0.666687)"/>
</clipPath>
</defs>
</svg>
