<svg width="56" height="60" viewBox="0 0 56 60" fill="none" xmlns="http://www.w3.org/2000/svg">
<path d="M25.9532 59.9202L0.00695801 44.9402V14.9801L25.9532 0L51.8995 14.9801V44.9402L25.9532 59.9202Z" fill="#C7AA92"/>
<path d="M25.9532 0L0.00695801 14.9801L25.9532 29.9602V59.9202L51.8995 44.9402V14.9801L25.9532 0Z" fill="#BD9475"/>
<path d="M25.9532 0V59.9202L51.8995 44.9402V14.9801L25.9532 0Z" fill="#9E7957"/>
<path d="M25.9532 29.9602V59.9202L51.8995 44.9403V14.9801L25.9532 29.9602Z" fill="#936C4C"/>
<path d="M11.22 8.50614L37.1662 23.4863L40.6865 21.4538L14.7403 6.47375L11.22 8.50614Z" fill="#FFEA84"/>
<path d="M25.9532 12.9478V17.0126L37.1662 23.4864L40.6865 21.4539L25.9532 12.9478Z" fill="#FFDC40"/>
<path d="M42.4986 60C35.0577 60 29.0041 53.9464 29.0041 46.5055C29.0041 39.0645 35.0577 33.011 42.4986 33.011C49.9394 33.011 55.993 39.0645 55.993 46.5055C55.993 53.9464 49.9395 60 42.4986 60Z" fill="#8FE673"/>
<path d="M42.5035 33.0111V59.9999C49.9421 59.9973 55.993 53.9447 55.993 46.5054C55.993 39.0661 49.9421 33.0138 42.5035 33.0111Z" fill="#76CC5B"/>
<path d="M40.9223 52.1601L35.8444 47.1336L38.3211 44.6319L40.9028 47.1875L46.6665 41.392L49.1624 43.8745L40.9223 52.1601Z" fill="white"/>
<path d="M42.5035 50.5702L49.1624 43.8745L46.6664 41.392L42.5035 45.578V50.5702Z" fill="#F2F2F4"/>
</svg>
