<svg width="470" height="470" viewBox="0 0 470 470" fill="none" xmlns="http://www.w3.org/2000/svg">
<path d="M787 -30C787 135.685 652.685 270 487 270C321.315 270 187 135.685 187 -30C187 -195.685 321.315 -330 487 -330C652.685 -330 787 -195.685 787 -30ZM261.996 -30C261.996 94.2663 362.734 195.004 487 195.004C611.266 195.004 712.004 94.2663 712.004 -30C712.004 -154.266 611.266 -255.004 487 -255.004C362.734 -255.004 261.996 -154.266 261.996 -30Z" fill="#239C52" fill-opacity="0.06"/>
<path d="M1000 -30C1000 246.142 776.142 470 500 470C223.858 470 0 246.142 0 -30C0 -306.142 223.858 -530 500 -530C776.142 -530 1000 -306.142 1000 -30ZM124.993 -30C124.993 177.11 292.889 345.007 500 345.007C707.11 345.007 875.007 177.11 875.007 -30C875.007 -237.111 707.11 -405.007 500 -405.007C292.889 -405.007 124.993 -237.111 124.993 -30Z" fill="#239C52" fill-opacity="0.03"/>
</svg>
