<svg width="470" height="470" viewBox="0 0 470 470" fill="none" xmlns="http://www.w3.org/2000/svg">
<path d="M257 500C257 665.685 122.685 800 -43 800C-208.685 800 -343 665.685 -343 500C-343 334.315 -208.685 200 -43 200C122.685 200 257 334.315 257 500ZM-268.004 500C-268.004 624.266 -167.266 725.004 -43 725.004C81.2663 725.004 182.004 624.266 182.004 500C182.004 375.734 81.2663 274.996 -43 274.996C-167.266 274.996 -268.004 375.734 -268.004 500Z" fill="#239C52" fill-opacity="0.06"/>
<path d="M470 500C470 776.142 246.142 1000 -30 1000C-306.142 1000 -530 776.142 -530 500C-530 223.858 -306.142 0 -30 0C246.142 0 470 223.858 470 500ZM-405.007 500C-405.007 707.11 -237.111 875.007 -30 875.007C177.11 875.007 345.007 707.11 345.007 500C345.007 292.889 177.11 124.993 -30 124.993C-237.111 124.993 -405.007 292.889 -405.007 500Z" fill="#239C52" fill-opacity="0.03"/>
</svg>
