<svg width="24" height="24" viewBox="0 0 24 24" fill="none" xmlns="http://www.w3.org/2000/svg">
<path d="M4.12157 7.66063L4.12214 7.66019L9.51157 3.45487C9.51163 3.45483 9.51168 3.45478 9.51174 3.45474C10.027 3.0535 10.7519 2.81915 11.52 2.80112C12.2882 2.78308 13.0252 2.98318 13.5608 3.35864L19.7405 7.69439L19.7421 7.69552C20.104 7.94804 20.4775 8.39582 20.7619 8.94139C21.0462 9.48687 21.2 10.0505 21.2 10.4942V17.7842C21.2 19.6578 19.6659 21.2 17.79 21.2H6.21C4.33533 21.2 2.8 19.6591 2.8 17.7742V10.354C2.8 9.94321 2.93792 9.40879 3.1959 8.88228C3.45374 8.35605 3.79283 7.91667 4.12157 7.66063Z" stroke="#343A40" stroke-width="1.6"/>
<mask id="path-2-inside-1_698_2882" fill="white">
<path d="M11 18H14H11Z"/>
</mask>
<path d="M11 17C10.4477 17 10 17.4477 10 18C10 18.5523 10.4477 19 11 19V17ZM14 19C14.5523 19 15 18.5523 15 18C15 17.4477 14.5523 17 14 17V19ZM11 19H14V17H11V19Z" fill="#343A40" mask="url(#path-2-inside-1_698_2882)"/>
</svg>
