<svg width="44" height="44" viewBox="0 0 44 44" fill="none" xmlns="http://www.w3.org/2000/svg">
<rect x="0.5" y="0.5" width="43" height="43" rx="21.5" fill="#F5F5F5"/>
<rect x="0.5" y="0.5" width="43" height="43" rx="21.5" stroke="#ADADAD"/>
<path d="M22.0166 13.6662C18.95 13.6662 16.4666 16.1495 16.4666 19.2162V20.9662C16.4666 21.5329 16.2333 22.3829 15.9416 22.8662L14.8833 24.6329C14.2333 25.7245 14.6833 26.9412 15.8833 27.3412C19.8666 28.6662 24.175 28.6662 28.1583 27.3412C29.2833 26.9662 29.7666 25.6495 29.1583 24.6329L28.1 22.8662C27.8083 22.3829 27.575 21.5245 27.575 20.9662V19.2162C27.5666 16.1662 25.0666 13.6662 22.0166 13.6662Z" stroke="black" stroke-width="1.4" stroke-miterlimit="10" stroke-linecap="round"/>
<path d="M24.775 27.6831C24.775 29.2081 23.525 30.4581 22 30.4581C21.2417 30.4581 20.5417 30.1415 20.0417 29.6415C19.5417 29.1415 19.225 28.4415 19.225 27.6831" stroke="black" stroke-width="1.4" stroke-miterlimit="10"/>
</svg>
