<svg width="24" height="24" viewBox="0 0 24 24" fill="none" xmlns="http://www.w3.org/2000/svg">
<path d="M12 14.5C13.3807 14.5 14.5 13.3807 14.5 12C14.5 10.6193 13.3807 9.5 12 9.5C10.6193 9.5 9.5 10.6193 9.5 12C9.5 13.3807 10.6193 14.5 12 14.5Z" stroke="#343A40" stroke-width="1.4" stroke-miterlimit="10" stroke-linecap="round" stroke-linejoin="round"/>
<path d="M3.66699 12.7334V11.2667C3.66699 10.4 4.37533 9.68336 5.25033 9.68336C6.75866 9.68336 7.37533 8.6167 6.61699 7.30836C6.18366 6.55836 6.44199 5.58336 7.20033 5.15003L8.64199 4.32503C9.30033 3.93336 10.1503 4.1667 10.542 4.82503L10.6337 4.98336C11.3837 6.2917 12.617 6.2917 13.3753 4.98336L13.467 4.82503C13.8587 4.1667 14.7087 3.93336 15.367 4.32503L16.8087 5.15003C17.567 5.58336 17.8253 6.55836 17.392 7.30836C16.6337 8.6167 17.2503 9.68336 18.7587 9.68336C19.6253 9.68336 20.342 10.3917 20.342 11.2667V12.7334C20.342 13.6 19.6337 14.3167 18.7587 14.3167C17.2503 14.3167 16.6337 15.3834 17.392 16.6917C17.8253 17.45 17.567 18.4167 16.8087 18.85L15.367 19.675C14.7087 20.0667 13.8587 19.8334 13.467 19.175L13.3753 19.0167C12.6253 17.7084 11.392 17.7084 10.6337 19.0167L10.542 19.175C10.1503 19.8334 9.30033 20.0667 8.64199 19.675L7.20033 18.85C6.44199 18.4167 6.18366 17.4417 6.61699 16.6917C7.37533 15.3834 6.75866 14.3167 5.25033 14.3167C4.37533 14.3167 3.66699 13.6 3.66699 12.7334Z" stroke="#343A40" stroke-width="1.4" stroke-miterlimit="10" stroke-linecap="round" stroke-linejoin="round"/>
</svg>
